<svg width="512" height="512" viewBox="0 0 512 512" fill="none" xmlns="http://www.w3.org/2000/svg">
<path d="M493.4 24.6103L389.402 0.610801C378.103 -1.98915 366.503 3.91073 361.903 14.5105L313.904 126.508C309.704 136.308 312.504 147.808 320.804 154.508L381.403 204.107C345.403 280.805 282.505 344.604 204.206 381.303L154.607 320.704C147.807 312.404 136.408 309.604 126.608 313.804L14.6101 361.803C3.91034 366.503 -1.98954 378.103 0.610403 389.403L24.6099 493.401C27.1099 504.201 36.7097 512 48.0094 512C304.104 512 512 304.505 512 48.0098C512 36.8101 504.3 27.1103 493.4 24.6103Z" fill="#EEEEEE"/>
</svg>
